<?xml version="1.0" encoding="UTF-8"?>
<svg width="128px" height="128px" viewBox="0 0 128 128" version="1.1" xmlns="http://www.w3.org/2000/svg" xmlns:xlink="http://www.w3.org/1999/xlink">
    <!-- Generator: Sketch 48.2 (47327) - http://www.bohemiancoding.com/sketch -->
    <title>app-icon</title>
    <desc>Created with Sketch.</desc>
    <defs>
        <radialGradient cx="33.4402472%" cy="24.2701366%" fx="33.4402472%" fy="24.2701366%" r="91.2042959%" id="radialGradient-1">
            <stop stop-color="#FFFFFF" offset="0%"></stop>
            <stop stop-color="#FFFFFF" offset="9.5198478%"></stop>
            <stop stop-color="#FFDD21" offset="27.9410727%"></stop>
            <stop stop-color="#FF950A" offset="55.0144076%"></stop>
            <stop stop-color="#260200" offset="100%"></stop>
        </radialGradient>
        <circle id="path-2" cx="64" cy="64" r="64"></circle>
    </defs>
    <g id="Page-1" stroke="none" stroke-width="1" fill="none" fill-rule="evenodd">
        <g id="Oval-15">
            <use fill="url(#radialGradient-1)" fill-rule="evenodd" xlink:href="#path-2"></use>
            <use fill="#FFE91D" fill-rule="evenodd" xlink:href="#path-2"></use>
            <circle stroke="#D0BE19" stroke-width="3" cx="64" cy="64" r="62.5"></circle>
        </g>
        <path d="M92.349338,106 C88.2119257,105.881075 86.3921017,105.891302 84.2849934,102.367963 L82.6427469,102.415805 C80.731222,102.329489 81.5278468,102.368614 80.2525817,102.304052 C78.1203902,102.219686 78.4619505,100.159627 78.086844,99.071211 C77.486801,95.3765505 78.8808837,91.662796 78.8369052,87.9674071 C78.8213349,86.6556314 76.9958468,82.0124202 76.3436787,80.3523739 C74.2992133,80.7437854 72.2436571,80.8184111 70.1695413,80.9235041 C65.3886933,80.9115959 60.640269,80.3162862 55.9261756,79.560306 C55.0075173,83.4191179 52.2769078,88.8201617 54.5339723,92.741902 C57.2736285,96.7984851 59.1961865,97.9223409 62.1761977,98.166934 C65.1561769,98.4113292 65.8290769,101.832458 65.1081123,103.054366 C64.469973,103.898839 63.3484038,104.052126 62.3954937,104.256716 L60.4894168,104.347811 C58.9894932,104.296502 57.6488376,103.884707 56.3123323,103.249613 C54.0803767,101.982705 51.7751792,99.3488588 50.0624619,97.4579365 C50.4611956,98.2130404 50.6990297,99.6871476 50.3373724,100.373133 C49.3247424,101.831808 44.9451062,101.822896 42.9393893,100.916464 C40.6609278,99.886967 35.1552793,92.6583533 34.3040555,87.2444446 C36.5686229,82.8897631 39.8676514,79.0965713 41.5367302,74.3549745 C37.8985832,71.9944384 35.9500417,68.1516832 36.2029929,63.7988127 L36.294294,63.2949376 C32.7145221,63.9763768 34.5709093,63.7228434 30.7200123,64.0190589 C18.4561526,63.9809035 7.67107257,55.5255087 13.7439894,42.3843259 C14.1389117,41.6061643 14.5145942,40.8986814 15.1840672,41.2365572 C15.7213936,41.5076713 15.6442095,42.595222 15.3739361,43.8012611 C11.9025719,59.5032025 28.8685421,59.6233825 39.2978254,56.7178198 C40.3329237,56.4293879 42.3915825,54.4868106 43.8176548,53.8428266 C46.1486989,52.7902591 48.6788093,52.3632056 51.1897423,52.0554906 C57.4349257,51.3318803 64.9408708,54.677246 68.7546218,54.786481 C72.5684176,54.8957115 77.9936826,53.8579113 81.3240293,54.0764203 C83.7404795,54.1888448 86.1132826,54.6323658 88.4447735,55.2641568 C89.9539192,47.7868234 90.0606132,42.2758306 93.638247,41 C95.7379614,41.3372202 97.3559265,44.2467563 98.5535429,45.8013291 C100.997495,45.7026109 103.318523,46.3318384 105.626274,47.0301888 C109.804325,46.4272858 113.310327,44.0415144 117,42.1855992 C113.261152,45.2892941 112.753959,50.3387037 113.181177,55.0081034 C113.340054,57.4310852 112.666726,60.0617354 111.834336,62.542547 C110.276651,66.5843977 107.268411,70.8447964 103.776949,70.6262853 C102.457043,70.5838315 101.690278,69.8238703 100.709276,69.012515 C100.518974,70.6559264 99.7710338,72.1223455 99.0500307,73.5757911 C97.3850188,76.7983809 93.033996,78.2184849 89.0051914,81.6595467 C84.9766605,85.1006607 90.2943163,97.3903248 91.5836508,99.6295482 C92.8727758,101.868985 96.4715713,102.68823 95.0751194,104.709375 C94.6479092,105.376869 93.9946849,105.615603 93.2965584,105.874548 L92.349338,106 Z M45.5317675,97.4000805 L46.0982514,97.5724866 C46.8100897,97.2439211 48.2409786,97.7517278 49,98 C47.6023295,96.4015477 45.4966362,94.0542508 43.979557,92.574449 C43.4816041,90.7829189 43.6940726,88.9801849 43.8012079,87.1512998 L43.822697,87 C43.224702,88.4640688 42.4658258,89.887235 42.0579475,91.4283198 C41.5806392,93.5073757 44.1793066,95.7505697 45.1869637,97.0361792 L45.5317675,97.4000805 Z" id="Path-copy-3" fill="#252900"></path>
    </g>
</svg>