<?xml version="1.0" encoding="UTF-8"?>
<svg width="128px" height="128px" viewBox="0 0 128 128" version="1.1" xmlns="http://www.w3.org/2000/svg" xmlns:xlink="http://www.w3.org/1999/xlink">
    <!-- Generator: Sketch 58 (84663) - https://sketch.com -->
    <title>app-icon</title>
    <desc>Created with Sketch.</desc>
    <defs>
        <radialGradient cx="33.4402472%" cy="24.2701366%" fx="33.4402472%" fy="24.2701366%" r="91.2042959%" id="radialGradient-1">
            <stop stop-color="#FFFFFF" offset="0%"></stop>
            <stop stop-color="#FFFFFF" offset="9.5198478%"></stop>
            <stop stop-color="#FFDD21" offset="27.9410727%"></stop>
            <stop stop-color="#FF950A" offset="55.0144076%"></stop>
            <stop stop-color="#260200" offset="100%"></stop>
        </radialGradient>
        <circle id="path-2" cx="64" cy="64" r="64"></circle>
    </defs>
    <g id="Page-1" stroke="none" stroke-width="1" fill="none" fill-rule="evenodd">
        <g id="Oval-15-Copy-5">
            <use fill="url(#radialGradient-1)" xlink:href="#path-2"></use>
            <circle stroke="#D0BE19" stroke-width="3" stroke-linejoin="square" fill="#FFE91D" cx="64" cy="64" r="62.5"></circle>
        </g>
        <path d="M72.9439727,20 C77.0834095,20.6640644 80.2731122,26.3936124 82.6341274,29.454925 C87.4522035,29.260526 92.0279459,30.4996203 96.5775111,31.8748332 C104.81424,30.6875781 111.726073,25.9894437 119,22.3347185 C111.629129,28.4466099 110.629233,38.3900627 111.471464,47.5851883 C111.784678,52.3565986 110.457261,57.5369558 108.816262,62.4222465 C105.745398,70.3815831 99.8148678,78.7712914 92.9316995,78.3409925 C90.3295982,78.2573912 88.817976,76.7608523 86.8840011,75.1631065 C86.5088344,78.3993627 85.0343238,81.2870804 83.6129177,84.1492501 C80.3304656,90.4952732 71.752735,93.2917856 63.8102345,100.06803 C58.0773703,104.959503 61.9452152,118.930362 65.4965348,127.982578 C64.9988901,127.994264 64.5001149,128 64,128 C56.4535999,128 49.2122552,126.693903 42.4896876,124.295431 C43.0317107,120.356488 43.8109853,116.417807 43.7641846,112.489663 C43.7334887,109.906474 40.1346694,100.76292 38.8489666,97.4939055 C34.8184491,98.2646851 30.7660668,98.4116403 26.6770956,98.6185928 C20.9083537,98.6042399 15.1635579,98.1595047 9.44357015,97.475261 C3.45368821,87.7361222 0,76.2713872 0,64 C0,56.5625128 1.26866884,49.4213391 3.6014053,42.7810801 C11.6196482,44.3813068 19.1803311,47.014083 23.8876829,47.1487625 C31.4063089,47.3638627 42.1018315,45.3201946 48.6673721,45.7504892 C53.431231,45.971879 58.1090428,46.8452742 62.7054106,48.0894164 C65.6805836,33.3648214 65.8909232,22.5124049 72.9439727,20 Z" id="Combined-Shape" fill="#252900"></path>
        <path d="M64,0 C80.5537343,0 95.6395874,6.28474661 107.001672,16.5983522 L107.001244,20.7346187 C95.9730253,9.77330868 80.7775082,3 64,3 C30.3106303,3 3,30.3106303 3,64 C3,97.6893697 30.3106303,125 64,125 C97.6893697,125 125,97.6893697 125,64 C125,54.7004775 122.919023,45.8869931 119.197332,37.9998095 L122.498076,37.9996445 C126.034512,45.9443385 128,54.7426371 128,64 C128,99.346224 99.346224,128 64,128 C28.653776,128 0,99.346224 0,64 C0,28.653776 28.653776,0 64,0 Z" id="Combined-Shape" fill="#D0BE19" fill-rule="nonzero"></path>
    </g>
</svg>